<svg width="974" height="502" version="1.1" xmlns="http://www.w3.org/2000/svg" desc="Created with imagetracer.js version 1.2.6"><path fill="rgb(204,157,196)" stroke="rgb(204,157,196)" stroke-width="0" opacity="0.9764705882352941" d="M 146.5 21 L 347.5 21 Q 349.3 23.8 355.5 22 L 367.5 25 L 372.5 25 L 401.5 35 Q 423.9 45.6 439 63.5 Q 453.5 79.5 460 103.5 L 464 125.5 L 464 146.5 L 463 147.5 L 463 154.5 L 461 164.5 L 455 184.5 L 440.5 211 L 429.5 213 L 427.5 212 L 426.5 213 L 412.5 213 L 411.5 212 L 390.5 212 L 389 210.5 L 396 196.5 L 402 175.5 L 403 163.5 L 404 162.5 L 404 152.5 L 405 151.5 L 405 139.5 L 404 138.5 L 404 129.5 L 403 128.5 L 402 117.5 L 394 92.5 Q 383.2 70.3 365.5 55 L 346.5 43 L 324.5 35 L 317.5 35 L 301.5 32 L 208.5 32 L 207 34.5 L 207 210.5 L 205.5 212 L 177.5 212 Q 175.8 214.8 169.5 213 L 168.5 212 L 142.5 212 L 141 210.5 L 141 75.5 L 140 74.5 L 140 62.5 L 141 61.5 L 141 25.5 L 143.5 22 L 146.5 21 Z "></path><path fill="rgb(204,157,196)" stroke="rgb(204,157,196)" stroke-width="0" opacity="0.9764705882352941" d="M 488.5 21 L 685.5 21 Q 687 23.5 692.5 22 L 711.5 26 L 738.5 35 Q 760.9 45.6 776 63.5 Q 787.8 77.7 795 96.5 L 801 119.5 L 802 141.5 L 801 142.5 L 800 159.5 L 795 177.5 Q 787.6 197.1 774.5 211 L 772.5 212 L 716.5 212 L 716 210.5 L 726 197.5 L 735 177.5 L 740 153.5 L 740 129.5 L 739 128.5 L 738 114.5 L 730 89.5 L 722 74.5 L 703.5 53 L 681.5 39 L 663.5 34 L 656.5 34 L 648.5 32 L 549.5 32 L 548 34.5 L 548 210.5 L 546.5 212 L 518.5 212 L 517.5 213 L 509.5 213 L 508.5 212 L 483 211.5 L 483 197.5 L 482 196.5 L 482 30.5 Q 484.2 29.3 483 24.5 L 485.5 22 L 488.5 21 Z "></path><path fill="rgb(204,157,196)" stroke="rgb(204,157,196)" stroke-width="0" opacity="0.9764705882352941" d="M 128.5 231 L 139.5 231 L 148.5 233 Q 158.8 236.7 165 244.5 Q 171.9 251.6 170 267.5 Q 166.9 277.9 159.5 284 L 147.5 290 L 137.5 292 L 127.5 292 Q 124.2 289.3 117.5 290 L 110.5 287 L 100 277.5 Q 94 270.5 96 255.5 Q 98.4 244.4 106.5 239 Q 115.8 233.3 128.5 231 Z M 128 242 L 116 247 L 111 254 L 110 259 L 111 268 L 113 272 L 121 278 L 129 280 L 137 280 L 147 277 L 155 267 Q 157 256 153 252 Q 149 246 141 243 L 128 242 Z "></path><path fill="rgb(204,157,196)" stroke="rgb(204,157,196)" stroke-width="0" opacity="0.9764705882352941" d="M 208.5 231 L 229.5 232 L 238.5 234 L 242 237.5 Q 242.9 244.4 239.5 247 L 227.5 244 L 212.5 243 L 203.5 245 L 194 251.5 Q 190.1 255.6 191 264.5 L 196.5 274 L 206.5 279 L 223.5 279 L 233 273.5 L 234 267.5 Q 229.2 264.4 219.5 266 L 215.5 267 L 212 265.5 Q 210 257 214.5 255 L 245.5 255 L 248 257.5 L 248 277.5 L 241.5 285 L 226.5 291 L 209.5 292 L 199.5 290 L 190.5 286 L 181 277.5 Q 175.7 271.3 176 259.5 Q 178 246.5 186.5 240 L 194.5 235 L 208.5 231 Z "></path><path fill="rgb(204,157,196)" stroke="rgb(204,157,196)" stroke-width="0" opacity="0.9764705882352941" d="M 261.5 231 Q 270.9 229.1 274 233.5 L 273 246.5 L 272 247.5 L 272 262.5 L 275 271.5 L 279.5 276 Q 284.3 280.7 295.5 279 Q 302.3 276.8 306 271.5 L 308 266.5 L 308 233.5 L 309.5 232 L 323 232.5 L 323 268.5 L 319 279.5 L 312.5 286 Q 303.1 292.6 286.5 292 L 273.5 289 Q 266.1 286.4 262 280.5 L 258 271.5 L 257 232.5 L 261.5 231 Z "></path><path fill="rgb(204,157,196)" stroke="rgb(204,157,196)" stroke-width="0" opacity="0.9764705882352941" d="M 340.5 231 L 342.5 232 L 380.5 232 L 381.5 231 L 392.5 231 L 396 233.5 L 397 242.5 Q 395.5 245.5 389.5 244 L 388.5 243 L 355.5 243 Q 351 245 353 253.5 L 354.5 255 L 386.5 255 L 388 256.5 L 389 263.5 L 386.5 267 Q 381 268.5 379.5 266 L 356.5 266 L 353 267.5 L 353 276.5 L 354.5 278 L 393.5 278 L 396.5 277 L 399 278.5 L 398 288.5 L 396.5 290 L 337 289.5 Q 335.5 284 338 282.5 L 338 239.5 Q 335.5 238 337 232.5 L 340.5 231 Z "></path><path fill="rgb(204,157,196)" stroke="rgb(204,157,196)" stroke-width="0" opacity="0.9764705882352941" d="M 447.5 231 L 484.5 232 Q 491 233.5 494 238.5 Q 497.2 241.8 496 249.5 L 490.5 256 L 485 258.5 Q 493.4 260.6 498 266.5 Q 500.9 270.1 500 277.5 Q 498.8 283.3 494.5 286 L 485.5 290 L 435.5 290 L 434 288.5 L 434 236.5 L 433 233.5 L 434.5 232 L 446.5 232 L 447.5 231 Z M 450 242 L 448 244 Q 446 251 450 254 L 475 254 L 481 252 Q 483 251 482 246 L 475 242 L 450 242 Z M 451 264 L 448 267 L 448 278 L 450 279 L 479 279 L 485 275 L 484 269 L 479 265 Q 474 266 473 264 L 451 264 Z "></path><path fill="rgb(204,157,196)" stroke="rgb(204,157,196)" stroke-width="0" opacity="0.9764705882352941" d="M 535.5 231 L 538.5 232 L 539.5 231 L 548.5 231 L 553 233.5 L 556 243.5 L 579 284.5 L 580 289.5 L 565.5 290 L 557.5 277 L 525.5 277 L 524 278.5 L 518.5 290 L 503 289.5 L 504 284.5 L 510 276.5 L 526 246.5 L 531.5 232 L 535.5 231 Z M 541 245 Q 538 256 531 264 L 532 266 L 552 266 L 543 246 L 541 245 Z "></path><path fill="rgb(204,157,196)" stroke="rgb(204,157,196)" stroke-width="0" opacity="0.9764705882352941" d="M 711.5 231 L 723.5 231 L 725 232.5 L 726 234.5 L 725 235.5 L 725 284.5 L 726 288.5 L 724.5 290 L 710.5 290 L 709 287.5 L 709 276.5 L 710 275.5 L 710 267.5 L 706.5 266 L 677.5 266 L 675 267.5 L 675 288.5 L 673.5 290 L 660.5 290 L 659 288.5 L 660 283.5 L 660 241.5 Q 657.3 239.7 659 233.5 L 660.5 232 L 673.5 232 L 675 233.5 L 675 253.5 L 676.5 255 L 708.5 255 L 710 253.5 L 709 233.5 L 711.5 231 Z "></path><path fill="rgb(204,157,196)" stroke="rgb(204,157,196)" stroke-width="0" opacity="0.9764705882352941" d="M 761.5 231 L 771.5 231 L 772.5 232 L 781 232.5 L 793 259.5 L 802 276.5 L 810 287.5 L 810 289.5 L 793.5 290 L 786.5 277 L 755.5 277 L 753 279.5 L 748.5 290 L 732 289.5 L 733 284.5 L 749 257.5 L 757 241.5 L 759 233.5 L 761.5 231 Z M 771 245 L 761 263 L 762 266 L 781 266 L 772 246 L 771 245 Z "></path><path fill="rgb(204,157,196)" stroke="rgb(204,157,196)" stroke-width="0" opacity="0.9764705882352941" d="M 834.5 231 L 872.5 232 L 875 234.5 Q 877.7 236.8 877 242.5 L 875.5 244 L 851 244.5 L 851 288.5 L 849.5 290 L 836.5 290 L 835 288.5 L 836 283.5 L 836 245.5 L 833.5 243 L 816.5 243 L 812.5 244 L 810 239.5 L 814.5 232 L 833.5 232 L 834.5 231 Z "></path><path fill="rgb(204,157,196)" stroke="rgb(204,157,196)" stroke-width="0" opacity="0.9764705882352941" d="M 916.5 231 L 917.5 232 L 926.5 232 L 928 233.5 L 931 243.5 L 955 286.5 L 955 289.5 L 940.5 290 L 932.5 277 L 900.5 277 L 899 278.5 L 892.5 290 L 878.5 290 L 877 288.5 L 894 260.5 L 896 253.5 L 900 247.5 L 906.5 232 L 915.5 232 L 916.5 231 Z M 917 245 L 906 264 L 907 266 L 927 266 L 918 246 L 917 245 Z "></path><path fill="rgb(204,157,196)" stroke="rgb(204,157,196)" stroke-width="0" opacity="0.9764705882352941" d="M 21.5 232 L 69.5 232 L 80.5 236 L 84 239.5 Q 86.7 243.3 85 251.5 L 80.5 257 L 67 262.5 L 68.5 265 L 74 269.5 L 79.5 277 L 83.5 278 L 90.5 275 L 92 276.5 L 92 286.5 L 88.5 290 L 83.5 292 L 77.5 292 Q 70.8 289.8 67 284.5 Q 63.2 274.8 55.5 269 L 51.5 267 L 38.5 266 L 35 268.5 L 36 288.5 L 34.5 290 L 21.5 290 L 20 288.5 L 20 234.5 L 21.5 232 Z M 37 243 L 35 245 L 35 256 L 38 257 L 62 257 L 68 255 Q 72 254 71 249 L 68 245 L 59 243 L 37 243 Z "></path><path fill="rgb(204,157,196)" stroke="rgb(204,157,196)" stroke-width="0" opacity="0.9764705882352941" d="M 612.5 232 L 635.5 232 L 643.5 234 L 648 237.5 Q 649.1 245.1 645.5 248 L 632.5 244 L 615.5 244 Q 606 245.6 601 251.5 Q 596.8 255.3 598 264.5 Q 599.5 271 604.5 274 Q 614.3 281.2 633.5 279 L 649.5 273 L 651 274.5 L 651 284.5 L 647.5 288 L 640.5 290 L 620.5 292 L 619.5 291 L 607.5 290 L 602.5 288 Q 593.8 285.2 589 278.5 L 585 271.5 L 583 260.5 L 585 250.5 L 591.5 242 L 600.5 236 L 612.5 232 Z "></path><path fill="rgb(204,157,196)" stroke="rgb(204,157,196)" stroke-width="0" opacity="0.9764705882352941" d="M 144.5 309 L 204.5 309 L 207 311.5 L 207 475.5 L 204.5 481 L 202.5 482 L 146.5 482 L 141 478.5 L 141 312.5 L 142.5 310 L 144.5 309 Z "></path><path fill="rgb(204,157,196)" stroke="rgb(204,157,196)" stroke-width="0" opacity="0.9764705882352941" d="M 334.5 309 L 396.5 309 L 402 313.5 L 480.5 472 L 482 471.5 L 482 321.5 L 483 320.5 L 483 311.5 L 484.5 310 L 486.5 309 L 536.5 309 L 542.5 311 L 545 313.5 L 548 322.5 L 548 469.5 L 549.5 471 L 570.5 471 L 571.5 472 L 645.5 472 L 646.5 471 L 664.5 471 L 665.5 470 L 677.5 469 L 696.5 463 Q 721.8 452.3 738 432.5 L 751 414.5 L 762 389.5 L 766 371.5 L 767 350.5 L 766 349.5 L 766 341.5 L 764 335.5 L 764 329.5 L 759 310.5 L 760.5 309 L 819.5 309 L 825 313.5 L 830 326.5 L 831 337.5 L 832 338.5 L 832 364.5 L 828 384.5 L 823 398.5 Q 812.2 422.7 794.5 440 Q 779.7 455.2 759.5 465 L 737.5 474 L 704.5 481 L 695.5 481 L 694.5 482 L 420.5 482 L 414 473.5 L 403 452.5 L 391 426.5 L 334 315.5 L 333 310.5 L 334.5 309 Z "></path><path fill="rgb(0,0,0)" stroke="rgb(0,0,0)" stroke-width="0" opacity="0" d="M 0.5 0 L 974 0.5 L 973.5 502 L 0 501.5 L 0.5 0 Z M 147 21 L 144 22 L 141 26 L 141 62 L 140 63 L 140 75 L 141 76 L 141 211 L 143 212 L 169 212 L 170 213 Q 176 215 178 212 L 206 212 L 207 211 L 207 35 L 209 32 L 302 32 L 318 35 L 325 35 L 347 43 L 366 55 Q 383 70 394 93 L 402 118 L 403 129 L 404 130 L 404 139 L 405 140 L 405 152 L 404 153 L 404 163 L 403 164 L 402 176 L 396 197 L 389 211 L 391 212 L 412 212 L 413 213 L 427 213 L 428 212 L 430 213 L 441 211 L 455 185 L 461 165 L 463 155 L 463 148 L 464 147 L 464 126 L 460 104 Q 454 79 439 64 Q 424 46 402 35 L 373 25 L 368 25 L 356 22 Q 349 24 348 21 L 147 21 Z M 489 21 L 486 22 L 483 25 Q 484 29 482 31 L 482 197 L 483 198 L 483 212 L 509 212 L 510 213 L 518 213 L 519 212 L 547 212 L 548 211 L 548 35 L 550 32 L 649 32 L 657 34 L 664 34 L 682 39 L 704 53 L 722 75 L 730 90 L 738 115 L 739 129 L 740 130 L 740 154 L 735 178 L 726 198 L 716 211 L 717 212 L 773 212 L 775 211 Q 788 197 795 178 L 800 160 L 801 143 L 802 142 L 801 120 L 795 97 Q 788 78 776 64 Q 761 46 739 35 L 712 26 L 693 22 Q 687 24 686 21 L 489 21 Z M 129 231 Q 116 233 107 239 Q 98 244 96 256 Q 94 271 100 278 L 111 287 L 118 290 Q 124 289 128 292 L 138 292 L 148 290 L 160 284 Q 167 278 170 268 Q 172 252 165 245 Q 159 237 149 233 L 140 231 L 129 231 Z M 209 231 L 195 235 L 187 240 Q 178 247 176 260 Q 176 271 181 278 L 191 286 L 200 290 L 210 292 L 227 291 L 242 285 L 248 278 L 248 258 L 246 255 L 215 255 Q 210 257 212 266 L 216 267 L 220 266 Q 229 264 234 268 L 233 274 L 224 279 L 207 279 L 197 274 L 191 265 Q 190 256 194 252 L 204 245 L 213 243 L 228 244 L 240 247 Q 243 244 242 238 L 239 234 L 230 232 L 209 231 Z M 262 231 L 257 233 L 258 272 L 262 281 Q 266 286 274 289 L 287 292 Q 303 293 313 286 L 319 280 L 323 269 L 323 233 L 310 232 L 308 234 L 308 267 L 306 272 Q 302 277 296 279 Q 284 281 280 276 L 275 272 L 272 263 L 272 248 L 273 247 L 274 234 Q 271 229 262 231 Z M 341 231 L 337 233 Q 336 238 338 240 L 338 283 Q 336 284 337 290 L 397 290 L 398 289 L 399 279 L 397 277 L 394 278 L 355 278 L 353 277 L 353 268 L 357 266 L 380 266 Q 381 269 387 267 L 389 264 L 388 257 L 387 255 L 355 255 L 353 254 Q 351 245 356 243 L 389 243 L 390 244 Q 395 245 397 243 L 396 234 L 393 231 L 382 231 L 381 232 L 343 232 L 341 231 Z M 448 231 L 447 232 L 435 232 L 433 234 L 434 237 L 434 289 L 436 290 L 486 290 L 495 286 Q 499 283 500 278 Q 501 270 498 267 Q 493 261 485 259 L 491 256 L 496 250 Q 497 242 494 239 Q 491 234 485 232 L 448 231 Z M 536 231 L 532 232 L 526 247 L 510 277 L 504 285 L 503 290 L 519 290 L 524 279 L 526 277 L 558 277 L 566 290 L 580 290 L 579 285 L 556 244 L 553 234 L 549 231 L 540 231 L 539 232 L 536 231 Z M 712 231 L 709 234 L 710 254 L 709 255 L 677 255 L 675 254 L 675 234 L 674 232 L 661 232 L 659 234 Q 657 240 660 242 L 660 284 L 659 289 L 661 290 L 674 290 L 675 289 L 675 268 L 678 266 L 707 266 L 710 268 L 710 276 L 709 277 L 709 288 L 711 290 L 725 290 L 726 289 L 725 285 L 725 236 L 726 235 L 725 233 L 724 231 L 712 231 Z M 762 231 L 759 234 L 757 242 L 749 258 L 733 285 L 732 290 L 749 290 L 753 280 L 756 277 L 787 277 L 794 290 L 810 290 L 810 288 L 802 277 L 793 260 L 781 233 L 773 232 L 772 231 L 762 231 Z M 835 231 L 834 232 L 815 232 L 810 240 L 813 244 L 817 243 L 834 243 L 836 246 L 836 284 L 835 289 L 837 290 L 850 290 L 851 289 L 851 245 L 876 244 L 877 243 Q 878 237 875 235 L 873 232 L 835 231 Z M 917 231 L 916 232 L 907 232 L 900 248 L 896 254 L 894 261 L 877 289 L 879 290 L 893 290 L 899 279 L 901 277 L 933 277 L 941 290 L 955 290 L 955 287 L 931 244 L 928 234 L 927 232 L 918 232 L 917 231 Z M 22 232 L 20 235 L 20 289 L 22 290 L 35 290 L 36 289 L 35 269 L 39 266 L 52 267 L 56 269 Q 63 275 67 285 Q 71 290 78 292 L 84 292 L 89 290 L 92 287 L 92 277 L 91 275 L 84 278 L 80 277 L 74 270 L 69 265 L 67 263 L 81 257 L 85 252 Q 87 243 84 240 L 81 236 L 70 232 L 22 232 Z M 613 232 L 601 236 L 592 242 L 585 251 L 583 261 L 585 272 L 589 279 Q 594 285 603 288 L 608 290 L 620 291 L 621 292 L 641 290 L 648 288 L 651 285 L 651 275 L 650 273 L 634 279 Q 614 281 605 274 Q 600 271 598 265 Q 597 255 601 252 Q 606 246 616 244 L 633 244 L 646 248 Q 649 245 648 238 L 644 234 L 636 232 L 613 232 Z M 145 309 L 143 310 L 141 313 L 141 479 L 147 482 L 203 482 L 205 481 L 207 476 L 207 312 L 205 309 L 145 309 Z M 335 309 L 333 311 L 334 316 L 391 427 L 403 453 L 414 474 L 421 482 L 695 482 L 696 481 L 705 481 L 738 474 L 760 465 Q 780 455 795 440 Q 812 423 823 399 L 828 385 L 832 365 L 832 339 L 831 338 L 830 327 L 825 314 L 820 309 L 761 309 L 759 311 L 764 330 L 764 336 L 766 342 L 766 350 L 767 351 L 766 372 L 762 390 L 751 415 L 738 433 Q 722 452 697 463 L 678 469 L 666 470 L 665 471 L 647 471 L 646 472 L 572 472 L 571 471 L 550 471 L 548 470 L 548 323 L 545 314 L 543 311 L 537 309 L 487 309 L 485 310 L 483 312 L 483 321 L 482 322 L 482 472 L 481 472 L 402 314 L 397 309 L 335 309 Z "></path><path fill="rgb(0,0,0)" stroke="rgb(0,0,0)" stroke-width="0" opacity="0" d="M 127.5 242 L 140.5 243 Q 148.5 245.5 153 251.5 Q 156.8 256.2 155 266.5 L 146.5 277 L 136.5 280 L 128.5 280 L 120.5 278 L 113 271.5 L 111 267.5 L 110 258.5 L 111 253.5 L 115.5 247 L 127.5 242 Z "></path><path fill="rgb(0,0,0)" stroke="rgb(0,0,0)" stroke-width="0" opacity="0" d="M 449.5 242 L 474.5 242 L 482 245.5 Q 483.3 250.8 480.5 252 L 474.5 254 L 449.5 254 Q 446.5 251 448 243.5 L 449.5 242 Z "></path><path fill="rgb(0,0,0)" stroke="rgb(0,0,0)" stroke-width="0" opacity="0" d="M 36.5 243 L 58.5 243 L 67.5 245 L 71 248.5 Q 71.8 254.3 67.5 255 L 61.5 257 L 37.5 257 L 35 255.5 L 35 244.5 L 36.5 243 Z "></path><path fill="rgb(0,0,0)" stroke="rgb(0,0,0)" stroke-width="0" opacity="0" d="M 540.5 245 L 543 245.5 L 552 265.5 L 531.5 266 L 531 263.5 Q 537.6 256.1 540.5 245 Z "></path><path fill="rgb(0,0,0)" stroke="rgb(0,0,0)" stroke-width="0" opacity="0" d="M 770.5 245 L 772 245.5 L 781 265.5 L 761.5 266 L 761 262.5 L 770.5 245 Z "></path><path fill="rgb(0,0,0)" stroke="rgb(0,0,0)" stroke-width="0" opacity="0" d="M 916.5 245 L 918 245.5 L 927 265.5 L 906.5 266 L 906 263.5 L 916.5 245 Z "></path><path fill="rgb(0,0,0)" stroke="rgb(0,0,0)" stroke-width="0" opacity="0" d="M 450.5 264 L 472.5 264 Q 473.7 266.2 478.5 265 L 484 268.5 L 485 274.5 L 478.5 279 L 449.5 279 L 448 277.5 L 448 266.5 L 450.5 264 Z "></path></svg>